<?xml version="1.0" standalone="no"?>
<!DOCTYPE svg PUBLIC "-//W3C//DTD SVG 20010904//EN"
 "http://www.w3.org/TR/2001/REC-SVG-20010904/DTD/svg10.dtd">
<svg version="1.0" xmlns="http://www.w3.org/2000/svg"
 width="850.000000pt" height="709.000000pt" viewBox="0 0 850.000000 709.000000"
 preserveAspectRatio="xMidYMid meet">

<g transform="translate(0.000000,709.000000) scale(0.100000,-0.100000)"
fill="#000000" stroke="none">
<path d="M3835 7014 c-16 -3 -88 -11 -160 -20 -489 -59 -910 -181 -1306 -379
-364 -182 -714 -450 -993 -761 -186 -208 -415 -550 -521 -779 -73 -159 -90
-199 -131 -319 -171 -499 -239 -1079 -184 -1576 45 -405 157 -789 348 -1190
227 -479 625 -957 1072 -1287 313 -231 518 -333 955 -474 61 -20 378 -103 431
-114 16 -3 45 -8 64 -11 19 -3 42 -7 50 -9 28 -8 216 -34 286 -40 38 -4 74 -8
81 -10 33 -11 287 -20 518 -19 556 2 1042 100 1573 319 126 52 302 150 302
169 0 7 -44 116 -98 242 -55 126 -102 236 -105 245 -11 33 -75 29 -177 -11
-312 -123 -407 -156 -625 -213 -652 -173 -1264 -186 -1850 -42 -390 96 -838
322 -1167 590 -123 100 -369 353 -468 483 -403 525 -612 1001 -694 1577 -43
304 -18 692 64 1017 83 323 287 745 498 1027 182 244 434 515 627 675 473 392
888 567 1615 678 135 21 613 17 775 -5 587 -82 999 -239 1513 -578 73 -48 145
-97 160 -109 354 -272 554 -454 858 -780 45 -48 114 -91 114 -72 0 13 -184
259 -275 369 -172 208 -419 446 -627 606 -84 64 -351 247 -361 247 -3 0 -34
18 -70 40 -163 98 -501 250 -692 310 -455 142 -782 200 -1155 205 -118 1 -228
1 -245 -1z"/>
<path d="M3895 6542 c-45 -15 -50 -20 -53 -49 -2 -23 2 -34 16 -42 32 -17 43
-67 49 -214 5 -123 4 -139 -12 -157 -18 -20 -18 -20 -32 0 -8 11 -22 20 -31
20 -27 0 -242 188 -242 211 0 39 39 98 75 113 28 12 35 20 35 43 0 49 -12 57
-77 51 -120 -12 -172 -53 -144 -115 12 -25 1 -85 -20 -107 -13 -15 -22 60 -9
83 12 23 5 61 -14 73 -18 12 -66 9 -127 -8 -99 -28 -124 -72 -69 -122 34 -32
62 -107 90 -241 13 -64 16 -100 10 -112 -14 -24 -12 -63 2 -77 23 -23 132 -6
206 32 41 21 43 55 3 93 -30 29 -50 73 -32 73 11 0 60 -38 118 -93 l42 -40 83
18 c45 11 89 26 98 35 13 13 17 13 33 -2 30 -31 206 -17 242 19 22 22 18 55
-10 78 -21 16 -27 33 -35 95 -5 41 -10 116 -10 166 0 78 3 93 20 109 26 24 25
50 -2 69 -30 21 -138 20 -203 -2z"/>
<path d="M4393 6539 c-19 -20 -16 -37 13 -64 l27 -25 -24 -162 c-21 -153 -25
-165 -52 -191 -35 -33 -31 -67 10 -87 40 -19 189 -26 208 -10 19 16 19 54 0
70 -10 8 -15 30 -15 62 l0 49 63 -6 c53 -6 69 -3 107 17 53 27 87 74 95 133 9
59 -2 100 -37 141 -43 49 -59 55 -167 65 -53 4 -123 11 -156 14 -43 5 -63 3
-72 -6z m263 -146 c15 -56 -36 -138 -66 -106 -7 7 4 109 15 141 7 21 44 -4 51
-35z"/>
<path d="M4940 6439 c-9 -16 -8 -26 5 -46 16 -24 15 -30 -30 -157 -51 -147
-77 -196 -106 -203 -27 -7 -36 -49 -14 -72 40 -45 190 -86 220 -61 17 14 20
56 5 65 -11 7 -8 23 17 93 13 34 19 40 29 31 11 -9 13 -33 8 -110 -6 -83 -4
-102 10 -124 22 -34 73 -55 130 -55 28 0 46 -5 49 -14 3 -8 68 -53 145 -100
77 -48 146 -93 152 -101 19 -23 53 -18 97 14 51 37 73 68 73 103 0 23 -4 28
-26 28 -14 0 -42 -10 -63 -22 -43 -25 -75 -20 -117 15 -31 27 -29 52 9 108 29
43 42 36 40 -18 -1 -26 3 -43 10 -44 53 -5 82 18 126 101 34 64 39 95 15 104
-26 10 -34 7 -60 -21 -23 -24 -26 -25 -41 -11 -14 15 -14 20 11 62 14 25 31
48 37 51 16 10 88 -42 94 -68 2 -12 6 -33 7 -47 2 -20 9 -26 34 -28 26 -3 36
3 55 29 14 20 23 47 23 72 1 39 0 40 -69 76 -38 21 -108 60 -154 89 -92 57
-133 65 -151 31 -9 -15 -8 -24 0 -35 17 -20 8 -47 -50 -148 -76 -132 -127
-196 -157 -196 -13 0 -22 4 -19 9 3 4 -1 17 -9 27 -10 14 -12 37 -8 92 5 65 4
76 -15 102 -12 16 -22 32 -22 34 0 3 16 12 35 20 48 21 75 68 75 135 0 48 -3
57 -37 91 -27 26 -55 42 -98 54 -33 9 -88 28 -123 41 -78 31 -127 33 -142 4z
m220 -161 c0 -30 -28 -88 -45 -94 -31 -12 -33 11 -8 74 21 51 28 60 39 51 8
-6 14 -20 14 -31z"/>
<path d="M3010 6301 c-8 -5 -42 -14 -74 -20 -71 -13 -97 -29 -136 -83 -40 -55
-53 -108 -48 -194 10 -159 128 -276 278 -276 85 0 130 22 190 93 42 50 45 58
44 107 -2 84 -58 125 -84 62 -19 -46 -65 -80 -108 -80 -84 0 -188 125 -168
204 7 28 55 51 88 41 13 -4 42 -21 65 -38 108 -77 153 49 54 153 -38 40 -68
49 -101 31z"/>
<path d="M2509 6041 c-49 -27 -119 -105 -119 -134 0 -28 17 -47 45 -47 25 -1
41 -14 86 -70 88 -111 138 -195 141 -240 3 -43 4 -45 38 -48 26 -2 48 5 82 28
54 36 108 94 108 116 0 32 -21 54 -50 54 -24 0 -38 11 -75 58 -105 133 -139
192 -145 245 -5 51 -6 52 -40 54 -19 2 -51 -6 -71 -16z"/>
<path d="M2238 5835 c-20 -13 -45 -40 -57 -58 -37 -60 -23 -97 36 -97 32 0
103 -49 103 -71 0 -6 -65 -9 -157 -8 l-157 1 -44 -46 c-37 -40 -43 -51 -40
-84 3 -36 4 -37 49 -42 56 -7 95 -35 202 -144 63 -65 77 -85 77 -110 0 -67 58
-76 120 -20 48 44 62 94 34 125 -12 14 -25 18 -41 14 -18 -4 -34 5 -73 41 -28
26 -50 51 -50 56 0 6 77 8 188 6 l187 -3 3 27 c2 15 -1 35 -6 44 -5 9 -71 79
-146 154 -122 124 -136 141 -136 172 0 33 -24 68 -46 68 -5 0 -26 -11 -46 -25z"/>
<path d="M5974 5826 c-126 -40 -214 -158 -214 -288 1 -100 50 -182 133 -222
49 -23 148 -21 196 3 21 11 47 17 59 15 35 -10 62 13 62 52 0 29 -9 44 -53 88
-64 65 -116 86 -152 62 -25 -17 -33 -50 -15 -61 18 -11 11 -43 -12 -51 -15 -4
-25 -1 -35 12 -39 53 18 184 110 252 42 30 80 29 107 -5 19 -24 21 -37 17 -85
-6 -69 10 -98 53 -98 42 0 95 50 108 101 12 48 8 66 -19 74 -11 4 -26 19 -33
34 -54 104 -190 155 -312 117z"/>
<path d="M4070 5747 c-3 -3 -52 -11 -110 -17 -384 -42 -748 -188 -1068 -429
-606 -458 -930 -1209 -851 -1973 76 -743 546 -1410 1216 -1730 56 -27 105 -53
108 -57 6 -11 194 -70 320 -101 312 -77 525 -94 732 -59 38 7 86 13 108 15 22
1 63 7 90 13 28 6 79 16 115 21 128 19 213 44 280 83 25 15 104 57 175 93 220
111 404 242 572 407 96 94 65 97 272 -22 75 -43 206 -118 291 -166 199 -113
204 -116 275 -155 33 -18 65 -36 70 -40 6 -4 36 -22 68 -39 31 -17 94 -58 140
-89 67 -47 83 -63 87 -89 3 -17 16 -40 30 -51 25 -20 151 -84 156 -79 1 1 7
26 13 55 6 29 20 72 32 95 73 147 99 177 124 144 13 -18 13 -59 -2 -189 -7
-68 10 -61 52 23 40 79 47 157 20 210 -22 41 -163 131 -186 118 -36 -19 -71
-6 -250 91 -101 55 -221 119 -266 143 -46 23 -83 45 -83 49 0 5 23 50 51 100
28 51 75 158 105 238 29 80 76 206 104 280 28 74 60 158 70 185 15 43 42 110
124 310 10 22 21 49 26 60 5 11 30 70 56 130 25 61 58 135 71 165 13 30 28 64
33 75 63 143 270 562 349 705 205 369 473 718 609 789 37 19 25 28 -30 24
-214 -18 -481 -199 -741 -503 -50 -58 -93 -107 -97 -110 -4 -3 -49 -62 -101
-131 -52 -69 -104 -139 -116 -155 l-22 -29 0 44 c-1 49 -58 289 -73 309 -18
21 -51 13 -82 -21 -29 -31 -41 -35 -190 -65 l-160 -32 -23 22 c-19 18 -28 20
-51 12 -24 -8 -27 -15 -26 -49 1 -55 51 -279 69 -315 21 -40 83 -89 130 -101
67 -19 191 -7 259 24 32 15 54 21 49 15 -21 -28 -153 -240 -189 -303 -156
-280 -205 -370 -267 -497 -39 -81 -77 -147 -83 -147 -6 -1 -39 45 -72 102
-102 170 -204 279 -310 329 -54 26 -71 30 -121 25 -101 -8 -202 -76 -279 -185
l-43 -61 43 -22 c24 -12 57 -33 74 -48 17 -14 40 -33 50 -42 115 -97 281 -369
398 -649 48 -116 120 -320 114 -325 -1 -1 -48 22 -103 52 -266 146 -326 173
-375 173 -48 0 -49 -1 -113 -77 -127 -152 -272 -281 -432 -386 -335 -218 -678
-320 -1075 -320 -268 0 -484 42 -729 142 -782 317 -1276 1109 -1210 1941 37
479 235 906 576 1242 260 257 571 431 918 513 121 28 339 55 450 55 173 0 411
-37 585 -91 218 -67 490 -215 655 -357 l60 -52 163 0 c89 0 162 4 162 8 0 13
-176 181 -260 249 -180 145 -451 293 -670 366 -120 40 -306 82 -430 98 -96 12
-402 24 -410 16z m2905 -1477 c14 -44 -37 -91 -134 -121 -96 -30 -164 -29
-196 1 -27 25 -33 58 -12 65 17 7 309 74 324 74 6 1 14 -8 18 -19z m157 -2622
c24 -12 46 -26 50 -32 6 -10 -7 -36 -50 -93 l-23 -31 -57 25 c-31 14 -59 27
-60 29 -4 2 43 88 61 112 13 17 30 15 79 -10z"/>
<path d="M6433 5463 c-7 -2 -13 -22 -13 -42 0 -37 -4 -41 -102 -113 -174 -126
-176 -128 -209 -116 -34 12 -59 -3 -59 -34 0 -11 31 -65 70 -119 38 -55 79
-117 90 -139 18 -36 24 -40 58 -40 87 0 162 44 162 96 l0 27 -60 -7 c-56 -6
-62 -5 -86 19 -14 14 -24 33 -22 43 2 9 61 59 132 110 118 84 132 92 163 86
74 -14 83 43 21 136 -53 80 -102 111 -145 93z"/>
<path d="M1806 5339 c-60 -47 -108 -158 -87 -198 10 -17 20 -21 51 -19 40 2
110 -28 110 -47 0 -14 -38 -75 -47 -75 -27 0 -87 51 -97 81 -32 99 -162 -27
-154 -149 l3 -47 43 2 c38 2 58 -7 150 -63 145 -89 170 -109 174 -140 8 -68
65 -49 126 40 25 38 32 59 32 97 0 54 -9 64 -58 61 -32 -3 -122 39 -122 56 0
19 52 82 63 76 64 -38 96 -67 102 -94 16 -71 90 -38 141 62 44 86 27 143 -38
131 -30 -6 -94 27 -233 119 -60 40 -81 59 -83 78 -3 23 -26 50 -43 50 -3 0
-18 -10 -33 -21z"/>
<path d="M6717 5043 c-4 -3 -7 -14 -7 -23 0 -25 -37 -54 -130 -100 -126 -63
-185 -81 -241 -74 -73 10 -72 -8 9 -188 39 -84 73 -163 77 -175 9 -31 42 -37
117 -24 71 12 104 37 93 70 -5 17 -14 21 -49 21 -49 0 -87 25 -111 70 -24 47
-19 58 40 87 43 21 58 24 67 15 9 -9 6 -18 -16 -41 -66 -69 9 -89 126 -34 103
48 121 108 30 101 -41 -3 -47 -1 -50 18 -2 17 7 25 48 43 28 12 55 19 60 16 4
-3 16 -26 26 -51 17 -44 17 -47 0 -79 -10 -18 -16 -41 -14 -51 5 -28 61 -30
103 -4 60 37 69 73 31 123 -13 18 -47 84 -76 147 -29 63 -57 121 -62 128 -11
13 -60 17 -71 5z"/>
<path d="M1468 4758 c-9 -7 -18 -31 -22 -53 -3 -22 -26 -96 -51 -164 -52 -145
-55 -167 -20 -183 21 -9 28 -8 45 7 23 20 54 15 200 -36 110 -39 162 -68 178
-102 14 -28 43 -36 60 -14 5 6 26 58 46 114 19 56 47 132 61 168 15 36 25 75
23 87 -2 13 -25 39 -53 60 -39 30 -57 38 -85 36 -51 -4 -52 -37 -5 -89 29 -33
35 -46 30 -67 -13 -59 -27 -82 -49 -82 -38 0 -116 31 -116 46 0 15 6 17 55 18
26 1 30 5 30 31 0 22 -8 35 -34 52 -45 30 -135 57 -167 49 -35 -9 -31 -45 8
-77 27 -22 30 -29 20 -42 -11 -13 -19 -12 -67 6 -44 16 -55 24 -55 42 0 35 42
87 80 100 29 10 35 17 35 41 0 23 -7 33 -35 46 -41 21 -90 23 -112 6z"/>
<path d="M5485 4659 c-77 -5 -223 -18 -325 -28 -169 -18 -190 -23 -245 -52
-94 -50 -362 -228 -533 -356 -184 -137 -277 -187 -467 -249 -77 -25 -154 -52
-172 -60 -17 -8 -36 -14 -42 -14 -6 0 -25 -7 -43 -14 -18 -8 -71 -29 -118 -47
-219 -83 -396 -164 -492 -225 -99 -63 -198 -199 -198 -271 0 -14 -10 -42 -22
-62 -32 -51 -32 -141 1 -196 23 -39 23 -45 17 -183 -7 -167 -5 -176 77 -267
99 -112 266 -217 465 -294 179 -69 362 -118 471 -127 133 -11 413 19 665 72
76 16 81 15 175 -7 75 -18 125 -23 226 -23 118 0 136 3 194 27 156 65 277 214
297 367 4 28 11 53 16 56 5 4 22 -6 37 -20 l28 -26 79 25 c141 46 134 42 134
91 0 24 -3 44 -6 44 -4 0 -42 -12 -86 -26 -43 -15 -81 -24 -83 -22 -3 2 0 40
5 84 20 177 -29 347 -123 431 -108 94 -299 98 -475 9 -58 -29 -188 -130 -223
-173 -27 -33 -49 -43 -164 -72 -118 -30 -198 -41 -310 -41 -122 0 -133 6 -98
45 34 40 56 93 49 120 -6 24 -51 36 -183 50 -35 4 -63 10 -63 14 0 13 167 118
252 159 130 63 342 147 541 214 314 105 450 154 507 183 83 42 174 110 217
162 56 68 242 348 234 351 -4 1 -34 -9 -67 -24 -49 -22 -237 -86 -359 -124
-41 -12 -146 -37 -230 -54 -93 -19 -113 -7 -49 29 129 74 167 95 276 150 64
33 115 61 113 63 -9 10 -436 -132 -580 -193 -262 -109 -286 -118 -333 -111
-87 11 -152 29 -152 41 0 28 459 363 590 431 l55 29 378 -3 378 -4 -3 64 -3
63 -45 1 c-25 1 -108 -2 -185 -7z m-1050 -660 c316 -61 637 -92 843 -81 52 2
92 0 92 -5 0 -15 -120 -79 -220 -116 -52 -19 -167 -58 -255 -87 -530 -171
-820 -300 -967 -429 l-46 -41 -134 6 c-87 4 -147 3 -175 -5 -47 -13 -125 -79
-178 -151 -59 -80 -31 -77 57 5 120 113 105 109 331 91 106 -9 216 -16 244
-16 35 0 58 -6 74 -19 l24 -19 -21 -29 c-32 -44 -109 -91 -172 -104 -53 -11
-310 -7 -442 6 -77 8 -10 -13 94 -30 122 -20 312 -19 401 2 83 19 96 19 200 3
93 -15 240 -3 365 30 41 10 76 17 79 15 12 -12 -61 -83 -110 -107 -159 -78
-688 -120 -949 -75 -336 57 -648 199 -697 315 -13 32 -12 38 22 119 21 46 40
110 45 141 7 53 11 60 66 110 113 103 368 214 1104 481 97 35 93 35 325 -10z
m781 -884 c140 -70 197 -281 130 -479 -46 -135 -118 -225 -220 -272 -175 -82
-343 54 -354 286 -8 154 41 283 148 391 99 100 196 124 296 74z m-2144 -211
c40 -20 111 -51 158 -69 l85 -33 52 -103 c95 -193 102 -208 95 -213 -14 -9
-164 63 -248 120 -47 31 -113 84 -148 117 -61 59 -64 65 -71 122 -3 33 -8 68
-11 78 -8 25 8 22 88 -19z m1442 -140 c3 -9 3 -71 0 -138 -6 -124 -5 -130 36
-206 11 -19 19 -40 20 -47 0 -19 -34 -33 -99 -39 l-59 -7 -6 44 c-3 24 -13 96
-22 159 -28 194 -29 205 -5 229 27 27 125 31 135 5z"/>
<path d="M2967 3353 c-4 -3 -7 -28 -7 -55 0 -47 1 -48 30 -48 23 0 30 4 30 20
0 25 -1 26 68 -11 32 -16 80 -36 107 -43 62 -15 79 -40 46 -67 -35 -28 -73
-24 -169 21 -47 22 -87 39 -89 36 -9 -9 110 -79 172 -101 92 -32 117 -31 172
7 98 67 107 93 36 104 -78 11 -172 43 -280 95 -113 54 -107 52 -116 42z"/>
<path d="M5070 3083 c0 -16 31 -167 34 -171 11 -11 36 63 36 107 0 39 -4 53
-19 61 -23 12 -51 13 -51 3z"/>
<path d="M4954 3017 l-39 -35 46 -46 c55 -54 79 -59 79 -16 0 29 -25 106 -41
124 -4 4 -24 -8 -45 -27z"/>
<path d="M5208 2994 c-10 -17 -30 -115 -25 -120 6 -7 57 66 57 81 0 17 -26 49
-32 39z"/>
<path d="M4861 2881 c-27 -52 -26 -69 2 -77 34 -8 100 -1 104 12 5 14 -37 73
-64 91 -21 14 -23 12 -42 -26z"/>
<path d="M5216 2803 c-32 -37 -26 -53 21 -53 25 0 39 34 28 69 -9 28 -15 26
-49 -16z"/>
<path d="M4809 2713 c-16 -43 -8 -68 21 -66 39 4 100 35 100 50 0 15 -58 43
-90 43 -13 0 -24 -10 -31 -27z"/>
<path d="M5178 2690 c-14 -9 -15 -16 -6 -43 6 -17 14 -36 18 -40 9 -10 50 53
50 77 0 18 -35 21 -62 6z"/>
<path d="M5107 2613 c-3 -5 -9 -37 -13 -72 l-7 -64 32 19 c34 20 36 26 20 75
-14 40 -25 54 -32 42z"/>
<path d="M4878 2582 c-61 -26 -70 -42 -44 -78 14 -18 17 -18 42 -4 31 17 67
72 62 93 -2 10 -16 8 -60 -11z"/>
<path d="M4972 2503 c-55 -68 -56 -82 -6 -83 34 0 57 35 62 95 2 30 3 55 0 55
-2 0 -27 -30 -56 -67z"/>
<path d="M1333 4245 c-35 -15 -41 -28 -42 -105 0 -30 -8 -91 -17 -135 -28
-142 -28 -144 -8 -166 27 -30 75 -57 116 -64 29 -6 40 -3 57 14 29 29 26 45
-14 90 -20 22 -32 42 -28 44 8 5 241 -35 283 -48 11 -4 27 -20 35 -36 18 -34
53 -39 79 -10 19 20 46 135 46 196 0 22 -7 51 -16 63 -19 28 -60 29 -74 2 -8
-15 -21 -20 -53 -20 -38 0 -198 22 -254 35 -31 7 -29 21 5 30 41 10 62 34 62
71 0 23 -6 37 -19 44 -28 14 -120 12 -158 -5z"/>
<path d="M1600 2970 c-43 -43 -33 -107 19 -135 83 -42 162 65 96 130 -31 31
-86 34 -115 5z"/>
<path d="M2197 2273 c-4 -3 -7 -25 -7 -48 0 -38 -7 -51 -71 -124 -103 -119
-193 -191 -239 -191 -73 0 -79 -45 -15 -123 68 -84 140 -137 185 -137 42 0 63
18 59 52 -4 33 9 66 31 78 28 15 30 -6 18 -141 l-11 -122 85 -84 c93 -90 126
-103 163 -63 17 18 17 26 7 68 -9 37 -9 83 1 211 15 185 18 191 94 191 46 0
90 -18 112 -44 16 -19 72 -21 89 -4 7 7 12 26 12 43 0 56 -147 195 -207 195
-21 0 -36 -11 -70 -53 -13 -16 -97 -32 -114 -22 -25 16 59 75 105 75 30 0 50
31 40 63 -10 34 -71 104 -128 147 -41 31 -62 40 -93 40 -22 0 -43 -3 -46 -7z"/>
<path d="M5866 1951 c-10 -11 -32 -23 -50 -27 -93 -20 -178 -93 -225 -193 -22
-48 -26 -69 -26 -151 0 -111 19 -164 82 -227 66 -66 123 -88 233 -88 76 0 104
4 141 21 64 30 122 85 175 166 49 77 57 132 28 194 -28 58 -87 60 -98 2 -12
-65 -106 -148 -167 -148 -87 0 -219 105 -219 174 0 26 51 75 90 87 34 10 47 9
98 -10 73 -26 83 -26 115 -1 57 45 40 136 -34 189 -51 38 -115 43 -143 12z"/>
<path d="M2734 1731 c-147 -38 -244 -164 -244 -315 0 -193 158 -336 370 -336
106 0 164 22 231 89 46 46 61 70 74 116 24 81 17 194 -16 259 -32 66 -115 139
-187 166 -62 23 -178 34 -228 21z m184 -182 c30 -56 -8 -232 -65 -299 -30 -37
-52 -38 -84 -4 -21 22 -24 34 -22 90 5 196 110 326 171 213z"/>
<path d="M5140 1559 c-72 -29 -91 -82 -61 -164 19 -49 21 -78 21 -243 0 -183
-1 -188 -25 -224 -14 -20 -25 -46 -25 -57 0 -27 35 -44 74 -37 46 9 150 60
175 87 36 39 22 82 -26 84 -20 1 -29 7 -31 22 -2 16 10 25 58 47 89 40 117 47
130 31 7 -9 6 -16 -5 -25 -19 -16 -19 -54 0 -70 26 -22 77 -13 177 30 117 51
168 90 168 130 0 33 -29 55 -60 45 -14 -4 -50 21 -142 100 -267 231 -347 276
-428 244z m141 -290 c21 -17 39 -34 39 -38 0 -8 -76 -41 -93 -41 -4 0 -7 25
-7 55 0 34 4 55 11 55 6 0 29 -14 50 -31z"/>
<path d="M3222 1513 c-7 -2 -17 -13 -23 -24 -8 -15 -5 -25 10 -46 29 -36 27
-60 -19 -223 -47 -167 -62 -198 -95 -206 -31 -8 -45 -32 -35 -60 12 -30 99
-70 194 -89 71 -14 81 -14 102 0 27 18 31 47 9 65 -19 15 -19 61 -1 120 15 51
35 61 65 31 18 -18 21 -33 21 -114 0 -115 16 -152 82 -185 62 -31 140 -40 173
-18 31 20 33 56 4 74 -19 12 -21 20 -15 70 8 72 -5 117 -46 159 -17 18 -30 34
-27 35 2 2 22 12 44 23 55 28 85 76 85 136 0 42 -5 55 -37 90 -47 52 -87 72
-203 98 -52 12 -130 33 -173 47 -79 24 -92 26 -115 17z m280 -170 c35 -32 13
-134 -32 -148 -29 -9 -60 3 -60 24 0 22 30 112 43 129 13 16 27 15 49 -5z"/>
<path d="M4761 1419 c-60 -10 -136 -41 -163 -66 -36 -32 -12 -93 36 -93 30 0
40 -23 70 -170 37 -171 33 -220 -18 -220 -20 0 -24 6 -29 42 -8 58 -43 88
-102 88 -53 0 -100 -35 -111 -83 -7 -31 -7 -31 -17 -10 -18 41 -78 38 -91 -5
-4 -10 -20 -32 -37 -48 -26 -25 -39 -29 -103 -32 -92 -5 -106 6 -106 83 0 68
7 85 35 85 28 0 41 -15 50 -57 6 -28 11 -33 36 -33 22 0 32 7 44 30 22 42 30
146 16 197 -21 76 -80 79 -98 6 -8 -35 -12 -38 -43 -38 l-35 0 -3 61 c-4 84
11 99 90 90 69 -7 94 -18 128 -58 50 -59 109 -14 96 73 -4 24 -15 55 -25 67
l-17 24 -263 1 c-247 1 -264 0 -277 -18 -24 -32 -19 -45 31 -80 18 -12 20 -27
23 -137 2 -68 1 -157 -3 -198 -7 -68 -10 -77 -42 -106 -21 -20 -33 -39 -31
-50 6 -35 46 -44 198 -44 80 0 192 -5 249 -10 79 -7 108 -7 119 3 21 16 62
107 62 135 0 12 5 22 10 22 6 0 10 -8 10 -19 0 -29 39 -72 84 -92 29 -13 65
-19 123 -19 177 0 292 87 293 221 0 39 -14 137 -45 312 -3 21 1 34 18 50 34
32 39 53 18 78 -21 26 -93 33 -180 18z"/>
</g>
</svg>
